# xmcd
#
# Track frame offsets:
#	150
#	12598
#	23823
#	36082
#	47640
#	59148
#	72795
#	83354
#	95079
#	112111
#	126901
#	137265
#	151394
#	163487
#	173905
#	186026
#	198139
#	211338
#	223772
#	236985
#
# Disc length: 3295
#
# Revision: 2
# Processed by: cddbd v1.5.1PL0 Copyright (c) Steve Scherf et al.
# Submitted via: audiograbber 1.80.04
# Normalized: r1:TDELIM( - )
#
DISCID=230cdd14
DTITLE=Various Artist - 40 Top Hits - Country and Western CD2
DYEAR=1900
DGENRE=
TTITLE0=Kenny Rogers - Reuben James
TTITLE1=Pam Gadd - Sittin' On Top Of The World
TTITLE2=Nashville Music Company - Oh, Lonesome Me
TTITLE3=Willie Nelson - I'm Gonna Lose A Lot Of Teardrops
TTITLE4=Freddy Fender - I'm Leaving It Up To You
TTITLE5=Jennifer Weatherly - Life's Railway To Heaven
TTITLE6=Peter Hinnen - 7000 Rinder
TTITLE7=Jan - Bee Joe
TTITLE8=Rebecca Holden - Cowboys Dream
TTITLE9=John Brack - Nine Pound Hammer
TTITLE10=Nashville Music Company - Some Broken Hearts Never Mend
TTITLE11=Billy Troy - Birmingham Jail
TTITLE12=Johnny Paycheck - Song And Dance Man
TTITLE13=Willie Nelson - I Feel Sorry For Him
TTITLE14=Tennessee - Bottle Of Wine
TTITLE15=Nashville Music Company - Jackson
TTITLE16=Freddy Fender - Wasted Days And Wasted Nights
TTITLE17=Peter Hinnen - Send Me The Pillow You Dream On
TTITLE18=Nashville Music Company - Green, Green Grass Of Home
TTITLE19=Kenny Rogers - Ticket To Nowhere
EXTD=
EXTT0=
EXTT1=
EXTT2=
EXTT3=
EXTT4=
EXTT5=
EXTT6=
EXTT7=
EXTT8=
EXTT9=
EXTT10=
EXTT11=
EXTT12=
EXTT13=
EXTT14=
EXTT15=
EXTT16=
EXTT17=
EXTT18=
EXTT19=
PLAYORDER=
